{
	"asset":{
		"generator":"Khronos glTF Blender I/O v3.5.30",
		"version":"2.0"
	},
	"scene":0,
	"scenes":[
		{
			"name":"Scene",
			"nodes":[
				0
			]
		}
	],
	"nodes":[
		{
			"mesh":0,
			"name":"walls.001"
		}
	],
	"materials":[
		{
			"alphaMode":"BLEND",
			"doubleSided":true,
			"name":"vidro.001",
			"pbrMetallicRoughness":{
				"baseColorFactor":[
					0.0331047922372818,
					0.033104777336120605,
					0.0331047847867012,
					0.37727272510528564
				],
				"metallicFactor":0,
				"roughnessFactor":0
			}
		}
	],
	"meshes":[
		{
			"name":"Plane.019",
			"primitives":[
				{
					"attributes":{
						"POSITION":0,
						"TEXCOORD_0":1,
						"NORMAL":2
					},
					"indices":3,
					"material":0
				}
			]
		}
	],
	"accessors":[
		{
			"bufferView":0,
			"componentType":5126,
			"count":34,
			"max":[
				2.7333338260650635,
				0.6999999284744263,
				1.4944559335708618
			],
			"min":[
				-1.3777905702590942,
				-0.6999999284744263,
				-2.9666643142700195
			],
			"type":"VEC3"
		},
		{
			"bufferView":1,
			"componentType":5126,
			"count":34,
			"type":"VEC2"
		},
		{
			"bufferView":2,
			"componentType":5126,
			"count":34,
			"type":"VEC3"
		},
		{
			"bufferView":3,
			"componentType":5123,
			"count":60,
			"type":"SCALAR"
		}
	],
	"bufferViews":[
		{
			"buffer":0,
			"byteLength":408,
			"byteOffset":0,
			"target":34962
		},
		{
			"buffer":0,
			"byteLength":272,
			"byteOffset":408,
			"target":34962
		},
		{
			"buffer":0,
			"byteLength":408,
			"byteOffset":680,
			"target":34962
		},
		{
			"buffer":0,
			"byteLength":120,
			"byteOffset":1088,
			"target":34963
		}
	],
	"buffers":[
		{
			"byteLength":1208,
			"uri":"data:application/octet-stream;base64,"
		}
	]
}
